HIERARCHY
ROOT Pelvis
{
	OFFSET -0.217368 -24.078917 2.858379
	CHANNELS 6 Xposition Yposition Zposition Zrotation Yrotation Xrotation 
	JOINT Left_hip
	{
		OFFSET 5.858135 -8.228005 -1.766408
		CHANNELS 3 Zrotation Yrotation Xrotation
		JOINT Left_knee
		{
			OFFSET 4.345143 -38.646942 0.803700
			CHANNELS 3 Zrotation Yrotation Xrotation
			JOINT Left_ankle
			{
				OFFSET -1.479033 -42.687447 -3.742800
				CHANNELS 3 Zrotation Yrotation Xrotation
				JOINT Left_foot
				{
					OFFSET 4.105436 -6.028605 12.204244
					CHANNELS 3 Zrotation Yrotation Xrotation
					End Site
					{
						OFFSET 0.000000 0.000000 0.000000
					}
				}
			}
		}
	}
	JOINT Right_hip
	{
		OFFSET -6.030973 -9.051328 -1.354253
		CHANNELS 3 Zrotation Yrotation Xrotation
		JOINT Right_knee
		{
			OFFSET -4.325663 -38.368790 -0.484304
			CHANNELS 3 Zrotation Yrotation Xrotation
			JOINT Right_ankle
			{
				OFFSET 1.905555 -42.004566 -3.456167
				CHANNELS 3 Zrotation Yrotation Xrotation
				JOINT Right_foot
				{
					OFFSET -3.483987 -6.210554 13.032330
					CHANNELS 3 Zrotation Yrotation Xrotation
					End Site
					{
						OFFSET 0.000000 0.000000 0.000000
					}
				}
			}
		}
	}
	JOINT Spine1
	{
		OFFSET 0.443945 12.440353 -3.838522
		CHANNELS 3 Zrotation Yrotation Xrotation
		JOINT Spine2
		{
			OFFSET 0.448844 13.795640 2.682033
			CHANNELS 3 Zrotation Yrotation Xrotation
			JOINT Spine3
			{
				OFFSET -0.226460 5.603239 0.285504
				CHANNELS 3 Zrotation Yrotation Xrotation
				JOINT Neck
				{
					OFFSET -1.339018 21.163553 -3.346758
					CHANNELS 3 Zrotation Yrotation Xrotation
					JOINT Head
					{
						OFFSET 1.011321 8.893734 5.040987
						CHANNELS 3 Zrotation Yrotation Xrotation
						End Site
						{
							OFFSET 0.000000 0.000000 0.000000
						}
					}
				}
				JOINT Left_collar
				{
					OFFSET 7.170247 11.399971 -1.889817
					CHANNELS 3 Zrotation Yrotation Xrotation
					JOINT Left_shoulder
					{
						OFFSET 12.292140 4.520507 -1.904600
						CHANNELS 3 Zrotation Yrotation Xrotation
						JOINT Left_elbow
						{
							OFFSET 25.533188 -1.564902 -2.294648
							CHANNELS 3 Zrotation Yrotation Xrotation
							JOINT Left_wrist
							{
								OFFSET 26.570929 1.269810 -0.737473
								CHANNELS 3 Zrotation Yrotation Xrotation
								JOINT Left_palm
								{
									OFFSET 8.669054 -1.063602 -1.559429
									CHANNELS 3 Zrotation Yrotation Xrotation
									End Site
									{
										OFFSET 0.000000 0.000000 0.000000
									}
								}
							}
						}
					}
				}
				JOINT Right_collar
				{
					OFFSET -8.295364 11.247234 -2.370738
					CHANNELS 3 Zrotation Yrotation Xrotation
					JOINT Right_shoulder
					{
						OFFSET -11.322830 4.685326 -0.847207
						CHANNELS 3 Zrotation Yrotation Xrotation
						JOINT Right_elbow
						{
							OFFSET -26.012751 -1.436928 -3.126872
							CHANNELS 3 Zrotation Yrotation Xrotation
							JOINT Right_wrist
							{
								OFFSET -26.910841 0.679372 -0.602677
								CHANNELS 3 Zrotation Yrotation Xrotation
								JOINT Right_palm
								{
									OFFSET -8.875370 -0.865157 -1.010708
									CHANNELS 3 Zrotation Yrotation Xrotation
									End Site
									{
										OFFSET 0.000000 0.000000 0.000000
									}
								}
							}
						}
					}
				}
			}
		}
	}
}
MOTION
Frames: 5
Frame Time: 0.016667
-0.217368 69.778732 2.858379 -0.551268 0.734636 -1.842943 5.559354 -0.089754 -0.546568 -7.175464 1.143224 12.000804 9.728767 19.883761 3.341686 0.000000 0.000000 0.000000 -2.604923 -0.162180 2.882489 4.778163 -0.527458 8.106912 -8.530483 -20.795744 3.101807 0.000000 0.000000 0.000000 2.760414 -0.042983 0.316116 -2.646193 1.268705 -20.884794 -0.241244 7.164642 21.663317 6.831507 -3.477684 -11.787978 0.000000 0.000000 0.000000 -18.460087 0.380230 -2.125281 -40.601196 2.706255 -5.245754 -41.242056 -38.386174 16.382465 0.000000 0.000000 0.000000 0.000000 0.000000 0.000000 23.674877 0.594210 -2.100665 43.124496 4.627487 -2.194515 27.854188 36.325412 9.969903 0.000000 0.000000 0.000000 0.000000 0.000000 0.000000 
-0.041658 69.451721 2.897415 -0.939806 -0.349646 -1.936234 5.982656 -0.106638 -0.902361 -8.000303 1.388992 13.752150 10.813827 21.823059 3.227270 0.000000 0.000000 0.000000 -2.906917 -0.174917 3.249181 5.410179 -0.640789 8.191511 -8.671522 -21.079165 3.944821 0.000000 0.000000 0.000000 3.102872 -0.017335 -0.117098 -2.820822 1.315240 -21.399714 0.883427 8.348420 22.305746 7.327295 -3.720521 -12.260057 0.000000 0.000000 0.000000 -15.937215 -0.436865 -1.428741 -42.970973 1.826400 -5.291529 -42.622989 -39.106733 17.274907 0.000000 0.000000 0.000000 0.000000 0.000000 0.000000 22.057952 1.540396 -1.387274 43.978689 6.052816 -1.745068 29.024324 36.320186 10.355573 0.000000 0.000000 0.000000 0.000000 0.000000 0.000000 
0.190081 69.094078 3.035874 -1.232617 -2.240746 -2.298552 6.208149 -0.063273 0.294354 -8.134763 1.436408 14.159321 10.573969 21.428632 1.679537 0.000000 0.000000 0.000000 -3.267155 -0.161641 3.323963 5.575916 -0.680141 9.182161 -8.412661 -20.542109 3.245717 0.000000 0.000000 0.000000 3.185370 0.056901 -1.208461 -2.535639 1.238084 -20.263709 1.523986 8.741703 22.886856 8.162573 -4.297673 -11.991042 0.000000 0.000000 0.000000 -14.421913 -2.653917 -0.201488 -43.556795 0.577442 -4.948883 -43.806570 -39.833561 18.115847 0.000000 0.000000 0.000000 0.000000 0.000000 0.000000 22.747054 2.643578 -0.812538 44.036737 7.485762 -1.250695 27.505491 34.889344 9.412470 0.000000 0.000000 0.000000 0.000000 0.000000 0.000000 
0.464944 68.463997 3.257256 -1.755958 -2.575912 -2.809345 6.182304 -0.037551 0.975197 -8.688051 1.570764 14.226791 11.665049 23.562065 -0.381533 0.000000 0.000000 0.000000 -3.867053 -0.074036 2.475119 7.044395 -1.041717 12.869196 -8.977434 -21.757874 2.874325 0.000000 0.000000 0.000000 2.779752 -0.000062 -0.347366 -1.986274 1.093847 -21.586208 0.823734 7.623455 23.417295 8.614251 -4.454857 -12.748504 0.000000 0.000000 0.000000 -13.992733 -2.898324 -0.050168 -41.521875 -1.705750 -3.969569 -48.068001 -39.213393 19.590543 0.000000 0.000000 0.000000 0.000000 0.000000 0.000000 22.629646 2.053467 -1.144807 42.697957 7.478307 -1.225140 31.229330 35.027256 10.642790 0.000000 0.000000 0.000000 0.000000 0.000000 0.000000 
0.792785 67.633797 3.537279 -2.003968 -2.883348 -4.195697 6.300826 0.000994 2.106685 -9.328033 1.806229 15.870367 11.646808 23.700779 -2.812305 0.000000 0.000000 0.000000 -4.585979 0.038938 1.126286 7.616440 -1.299013 17.390999 -8.991781 -21.876963 0.669630 0.000000 0.000000 0.000000 2.451908 -0.080661 0.976667 -1.951627 1.081339 -21.069187 0.041554 6.325590 23.091412 9.104456 -4.529388 -14.066022 0.000000 0.000000 0.000000 -14.218341 -4.143250 0.532625 -39.784751 -3.264021 -3.321816 -49.749617 -39.495813 20.465191 0.000000 0.000000 0.000000 0.000000 0.000000 0.000000 23.078141 1.314941 -1.616377 41.649783 6.551610 -1.502906 31.161825 36.801003 11.235700 0.000000 0.000000 0.000000 0.000000 0.000000 0.000000 
